<svg xmlns="http://www.w3.org/2000/svg" viewBox="0 0 600 500"><defs><style>.cls-1{fill:#6c63ff;opacity:0.1;isolation:isolate;}.cls-18,.cls-2{fill:#8181fc;}.cls-2{opacity:0.3;}.cls-3{fill:#f7b690;}.cls-4{fill:#f4a086;}.cls-5{fill:#222b54;}.cls-6{fill:#edebeb;}.cls-16,.cls-7{fill:#f86d70;}.cls-8{fill:#2d2663;}.cls-9{fill:#293563;}.cls-10{fill:#222b56;}.cls-11{fill:#323657;}.cls-12{fill:#c73c3c;}.cls-13{opacity:0.61;}.cls-14,.cls-16{opacity:0.9;}.cls-15{fill:#fff;}.cls-17{fill:#fcd2c5;}.cls-19{fill:#301f59;}.cls-20{fill:#979dfe;}.cls-21{fill:#a77860;}.cls-22{fill:#eea886;}.cls-23,.cls-25{fill:#f5e2d9;}.cls-24{fill:#decbc4;}.cls-25{opacity:0.72;}.cls-26{fill:#f7b657;}</style></defs><g id="Слой_1" data-name="Слой 1"><path class="cls-1" d="M579.17,441.9c-13.08,12.3-31.69,17.39-49.69,20.6l-3,.53a503.92,503.92,0,0,1-56.9,5.9c-10.2.56-20.41.95-30.62,1.31l-8,.27q-15.57.51-31.22,1-15.3.5-30.62.93-19.6.54-39.22.9-15.3.27-30.62.38-19.61.12-39.22-.09-15.31-.16-30.62-.61-19.62-.57-39.21-1.67-13.3-.74-26.59-1.77l-4-.32c-38-3.11-76.72-8.68-110-26.29l-.9-.48-1.33-.73a118.85,118.85,0,0,1-17.5-11.62C20,422.21,11.9,412.5,7.6,401c-6.72-18.06-3.17-38.36,4.52-56s19.21-33.6,29.19-50.23c2.92-4.87,5.69-9.92,8.27-15.11,16.12-32.49,24.11-70.1,7.22-101.42q-3.34-6-7.22-11.57c-4.12-6.09-8.31-12.18-11.14-18.92-6.6-15.69-5.18-33.33-2.78-50.08,3.23-22.28,9.14-46.28,27.6-60.2C82.43,23,109.63,23.7,133.41,28.9c37,8,71.11,24.85,105.56,40s70.54,29,108.42,30.52a152.8,152.8,0,0,0,24.38-1h0a138.24,138.24,0,0,0,31.76-7.58C418.44,85.28,432,76.9,442.06,65.27c21.57-24.88,62.11-26.76,91.33-11.74,27.89,14.34,45.92,44.67,44.59,75-1.51,33.72-23.8,61.45-44.22,89.9-2.47,3.44-4.92,6.9-7.3,10.39q-2,2.91-3.91,5.84h0c-2.24,3.45-4.4,6.91-6.45,10.42-10.43,18-17.81,39.58-10.62,59,4,10.87,11.71,19.17,21,26.41,20.77,16.21,49.43,27.13,62.32,49.83C599.89,399.85,595.77,426.26,579.17,441.9Z"/><rect class="cls-2" x="53.64" y="91.51" width="150.55" height="228.61" rx="22.61"/><path class="cls-3" d="M61.59,307.33a7.49,7.49,0,0,1,1,2.55,12.57,12.57,0,0,0,1.18,3,28.68,28.68,0,0,1,1.43,5c0,.36-.79,2.63-.67,3.36s.53,2.16-.13,2.26S63,322.44,63,322.44a1,1,0,0,1-.49.93,1.61,1.61,0,0,1-1.64.06s-.4.73-.9.83a2,2,0,0,1-1.63-.22,2,2,0,0,1-1.24.4,1.64,1.64,0,0,1-1.38-.86s-1.22.25-1.58-.32a5.41,5.41,0,0,1-.44-1.7A19.77,19.77,0,0,1,55.22,313a7.57,7.57,0,0,0-.4-6.66Z"/><path class="cls-4" d="M63.14,322s.11-4.2-1-5.1-1.24.63-1.24.63.15-1.5-1.06-1.7-1.26,1.57-1.26,1.57a1.15,1.15,0,0,0-1.46-.91c-1.27.23-1,1.71-1,1.71s-1.21-1.45-2-.06a6.19,6.19,0,0,0,0,5.12s.38.64,1.58.32a1.67,1.67,0,0,0,2.62.46s1.85,1,2.53-.61A1.53,1.53,0,0,0,63.14,322Z"/><path class="cls-5" d="M75.85,246.77s-7.2,24-9.63,32.83c-.76,2.78-2.61,29.28-2.93,30.34s-9.46,2.53-9.46,2.53,1.11-33.15,1.21-35,10.07-38.83,13-40.15c2.18-1,3.32-.17,6.06,1.86C77.91,242.08,75.85,246.77,75.85,246.77Z"/><path class="cls-6" d="M162.84,202.34a12.23,12.23,0,0,0-5.27-7.55c-3.28-1.94-7.66-2-13-.32-5.57,1.79-9.92,2.66-13.7,2.66-8.17,0-13.66-4.06-22.83-11.65a22.15,22.15,0,0,0-19.58-4.8c-7.53,1.79-13.82,7.33-17.26,15.19l-2.14-.94c3.74-8.54,10.61-14.56,18.86-16.52a23.94,23.94,0,0,1,11.07,0,25.49,25.49,0,0,1,10.54,5.31c13.25,11,17.81,13.89,34.32,8.56,6-2,11.07-1.76,14.95.56a14.66,14.66,0,0,1,6.4,9.24Z"/><rect class="cls-7" x="144.83" y="207.65" width="19.69" height="1.46" transform="translate(-88.89 118.79) rotate(-33.22)"/><path class="cls-3" d="M165.07,208.58a4.35,4.35,0,0,1-.43,1.31s-.54.64-.89,1.12a4.44,4.44,0,0,0-.26.38,8,8,0,0,1-1.36,2.12c-.79.79-3.84,3.32-3.84,3.32l-2.62-2.22L153,213.39s1.52-6.61,2.17-7.44a2.15,2.15,0,0,1,.19-.22,10.68,10.68,0,0,1,1.71-1.18c.13-.11,1.53-1.11,2-1a1.65,1.65,0,0,1,1.25,1.05,4.09,4.09,0,0,1,1.87,1.19,2.49,2.49,0,0,1,1.61,1.51S165,207.8,165.07,208.58Z"/><path class="cls-4" d="M70,414.32s-.66,4.55-.74,5.24-7.3-.41-7.3-.41l-.58-5.42S69.11,413.68,70,414.32Z"/><path class="cls-8" d="M69.35,419a19.41,19.41,0,0,0,4.5,3.94c2.21,1.19,5.68,1.67,7,2.91.94.89,3.44,4.74-5.75,4.66s-13.61.54-14.59-.93,1.42-10.89,1.42-10.89S64.1,419.45,69.35,419Z"/><path class="cls-4" d="M121.71,414.32s-.65,4.55-.73,5.24-7.3-.41-7.3-.41l-.59-5.42S120.81,413.68,121.71,414.32Z"/><path class="cls-8" d="M121.05,419a19.65,19.65,0,0,0,4.5,3.94c2.21,1.19,10.35,2.18,11.66,3.41.94.9,2.51,4.5-10.41,4.16-9.18-.24-13.61.54-14.6-.93s1.43-10.89,1.43-10.89S115.67,419.51,121.05,419Z"/><path class="cls-9" d="M76,293.54S69.2,304.31,69.71,314s-2.46,20.37-3.48,30.55c-1.13,11.34-5.78,38.18-6,44.25s.72,25.44.72,25.44l9.31.21s7.81-46.94,9.83-51.73S92.2,323.83,92.54,320,76,293.54,76,293.54Z"/><path class="cls-9" d="M111.68,295s5.11,26.69,5.78,32.65,1.13,28.85,1.46,32.57,3.15,48.63,4,54.28H111.08S102,381.76,102,366.28s-7-33.67-11.61-43.88-15-10.46-17.77-29.42C72.57,293,107.89,289,111.68,295Z"/><path class="cls-3" d="M87.3,203s9.1-3.4,13.3,3.52,3.79,20.8-.8,22.51-11.48.81-13.83-3.52-4.46-10.61-4.36-14.79S84.91,204.18,87.3,203Z"/><path class="cls-3" d="M98.81,229.31s-.38,2.46.25,3.67-11.79,1.24-11.79,1.24a81.94,81.94,0,0,0-2.92-12.14C82.44,216.51,98.81,229.31,98.81,229.31Z"/><path class="cls-10" d="M84.35,222.08s.86,1.41,4.36.86,7.76-5.2,9.22-5.71,1.48-1.37,1.48-1.37l.91,1.34,1.55.09s-1.41-4.16.72-5.86-2.21-13.47-13.43-9.55c0,0-8.62,2.37-8.3,7.27S82.42,219.64,84.35,222.08Z"/><path class="cls-5" d="M99.8,232.84s0-2.32-1.09-2.54-11.57-1.23-12.86-.73v2.7S88.33,233.8,99.8,232.84Z"/><path class="cls-3" d="M99.17,214.08c-.19-.82-2.28-3.17-3.08-.66s1.21,5.9,2.33,5.61S99.67,216.16,99.17,214.08Z"/><path class="cls-11" d="M141.56,260.16h0C141.61,260.19,141.62,260.19,141.56,260.16Z"/><path class="cls-5" d="M117.2,236.34c-7.21-1-17.4-3.5-17.4-3.5l-14-.57s-12.8,2.82-17.84,5.09c-.47.22-.48,11.42-1.79,14.36l4.18,8.81s2.41,17.47,2.92,25.23c.23,3.57-5,33.44-5,33.44a96.57,96.57,0,0,0,15.1,2.69c9.51,1.05,33.29-.38,33.44-1.5s-4.6-41.86-4.81-44c-.33-3.24,1.11-20.44,1.11-20.44,2.2-1.71,21.49-10.66,26.76-15.33,1.41-1.25,7.35-7,9-9,6-7.07,10.89-13.14,11.49-14.45.68-.75-6.5-4.65-7.15-4.87s-8.66,10.29-11.78,13.67a88.27,88.27,0,0,1-7.16,5.7S121.71,236.6,117.2,236.34Z"/><path class="cls-10" d="M84.71,203.78s-11.61.91-.36,18.3Z"/><polygon class="cls-12" points="163.31 203.61 164.26 202.15 162.51 202.38 163.31 203.61"/><path class="cls-7" d="M166.18,112.6a21.84,21.84,0,1,0-6.64,43.18c.48.08,1,.14,1.45.18a21.85,21.85,0,0,0,5.19-43.36Zm12.87,24.08a16.36,16.36,0,0,1-17.59,13.83c-.36,0-.73-.07-1.09-.13a16.37,16.37,0,0,1-13.7-18.68,16.15,16.15,0,0,1,1.56-4.87,16.38,16.38,0,0,1,30.82,9.85Z"/><g class="cls-13"><path class="cls-6" d="M151.12,145.62l-3.91,3.81a21.88,21.88,0,0,1-3.87-25.06l4.89,2.46a16.15,16.15,0,0,0-1.56,4.87A16.39,16.39,0,0,0,151.12,145.62Z"/></g><path class="cls-7" d="M161.46,150.51,161,156c-.48,0-1-.1-1.45-.18a21.71,21.71,0,0,1-12.33-6.35l3.91-3.81a16.34,16.34,0,0,0,9.25,4.76C160.73,150.44,161.1,150.48,161.46,150.51Z"/><path class="cls-7" d="M167.39,155.57a21.64,21.64,0,0,1-6.4.39l.47-5.45a16.24,16.24,0,0,0,4.79-.29Z"/><g class="cls-14"><rect class="cls-7" x="151.65" y="264.99" width="12.56" height="41.18"/></g><g class="cls-14"><rect class="cls-7" x="132.98" y="276.53" width="12.56" height="29.63"/></g><g class="cls-14"><rect class="cls-7" x="169.77" y="245.9" width="12.56" height="60.27"/></g><polygon class="cls-6" points="67.13 158.22 66.43 157.68 79.62 140.52 95.9 141.41 108.17 121.86 121.39 120.5 129.34 104.78 130.13 105.18 121.97 121.33 108.69 122.7 96.37 142.32 80.04 141.44 67.13 158.22"/><path class="cls-15" d="M95.65,144.14a2.59,2.59,0,1,1,2.59-2.58A2.59,2.59,0,0,1,95.65,144.14Z"/><path class="cls-7" d="M95.65,139.37a2.19,2.19,0,1,1-2.19,2.19,2.19,2.19,0,0,1,2.19-2.19m0-.8a3,3,0,1,0,3,3,3,3,0,0,0-3-3Z"/><circle class="cls-15" cx="108.42" cy="122.1" r="2.59"/><path class="cls-7" d="M108.42,119.91a2.19,2.19,0,1,1-2.19,2.19,2.19,2.19,0,0,1,2.19-2.19m0-.8a3,3,0,1,0,3,3,3,3,0,0,0-3-3Z"/><circle class="cls-15" cx="121.69" cy="120.91" r="2.59"/><path class="cls-7" d="M121.69,118.73a2.19,2.19,0,1,1-2.19,2.18,2.19,2.19,0,0,1,2.19-2.18m0-.8a3,3,0,1,0,3,3,3,3,0,0,0-3-3Z"/><circle class="cls-15" cx="80.32" cy="141.56" r="2.59"/><path class="cls-7" d="M80.32,139.37a2.19,2.19,0,1,1-2.18,2.19,2.19,2.19,0,0,1,2.18-2.19m0-.8a3,3,0,1,0,3,3,3,3,0,0,0-3-3Z"/><path class="cls-16" d="M206.77,249.28a55.36,55.36,0,0,0,4,5.83l-6.21,8.07,13.82,12.09,7.16-7.19a54.44,54.44,0,0,0,13.14,5.63l-.31,10.18,18.28,1.71,1.59-10a54.14,54.14,0,0,0,14.3-3.25l5.76,8.38,15.76-9.43-4.66-9a53.73,53.73,0,0,0,9.6-11l9.59,3.36,7.14-16.92-9.09-4.55A54.81,54.81,0,0,0,308,218.88l9.73-2.89-4.11-17.9-10,1.64a54.09,54.09,0,0,0-3.28-6.43,55,55,0,0,0-4-5.84l6.21-8.06-13.82-12.1-7.16,7.2a54.44,54.44,0,0,0-13.14-5.63l.31-10.18L250.33,157l-1.58,10a54,54,0,0,0-14.3,3.25l-5.77-8.39-15.75,9.44,4.65,9a54.67,54.67,0,0,0-9.6,11L198.4,188l-7.15,16.91,9.1,4.56a54.3,54.3,0,0,0-1.27,14.23l-9.74,2.9,4.11,17.89,10-1.64A55,55,0,0,0,206.77,249.28ZM230.58,183a44.66,44.66,0,1,1-15.38,61.26A44.71,44.71,0,0,1,230.58,183Z"/><path class="cls-16" d="M213.36,238.2a43.57,43.57,0,1,0,23.25-57.07A43.63,43.63,0,0,0,213.36,238.2Zm68.36-28.79a30.6,30.6,0,1,1-40.08-16.32A30.6,30.6,0,0,1,281.72,209.41Z"/><path class="cls-17" d="M269,423.57l-6.42,1.59a39,39,0,0,0,.12,5.09s3,1.47,4,.69c1.81-1.37,2.78.23,2.78.23C268.27,429.06,269,423.57,269,423.57Z"/><path class="cls-9" d="M252.29,300.13v24.55c1.83,1.44,10.76,41.79,10.76,41.79l-1,59.83c2.66,2,7.19.21,7.24,0a394.07,394.07,0,0,0,8.91-55.21c2.76-33.54-.6-70.41-1-73.11C274.1,299.35,261.7,300.74,252.29,300.13Z"/><path class="cls-17" d="M241.22,424.8l-6.34,1.06s-.08,3.53.05,5.89c0,0,2.89,2,3.95,1.25a10.5,10.5,0,0,0,3-3.77A7.66,7.66,0,0,1,241.22,424.8Z"/><path class="cls-9" d="M237.77,302.66c-9.38,20.36,1.27,52.43.3,67.67l-4.23,55.22c5.5,2.46,8.83-.59,8.83-.59s5.67-24.19,11.41-52.47c4.14-20.45,4.82-61.27,4.66-64C255.52,309.62,247.1,304,237.77,302.66Z"/><path class="cls-4" d="M244.35,219.9a20.84,20.84,0,0,1,.82,7.49,8.7,8.7,0,0,0,0,2.79c.57,2.18,3,3.26,5.07,4,2.33.87,5.12,1.69,7.14.25a5.14,5.14,0,0,0,1.91-3.45,15.64,15.64,0,0,0-.1-4l-.42-3.69a5.31,5.31,0,0,0-.65-2.33,4.67,4.67,0,0,0-3-1.65,22.92,22.92,0,0,0-9-.24Z"/><path class="cls-3" d="M268.73,247.78c11.87-2.52,25.13-6,31.1-16.59,3.56-6.3,3.71-13.88,5.17-21,1.16-5.64.05-10.82,2.87-15.84,1-1.77,5.12-7.94,5-10-.15-4-7-4.31-10.6-2.46s-3,4.77-2.75,12.4c-.22,15.81-4.62,35.37-23.51,38.63-3.8.66-10.15,1.6-12.22,4.86s-.77,9.71,3.08,10Z"/><path class="cls-3" d="M236.38,247.83c-8.36,6.86-14.69,22.07-23.56,18.27C199,262,194,253,194,241.61c1.35,1.93,5,5.84,5,5.84s3.36,7.68,11.29,8.51c10.16,1.06,13.94-24.07,28.72-13.27Z"/><path class="cls-3" d="M259.42,195.59a137.14,137.14,0,0,1,5,20.46c.35,2.12.62,4.4-.37,6.3a6.7,6.7,0,0,1-4.72,3.26,14.3,14.3,0,0,1-5.89-.33,10.77,10.77,0,0,1-5.13-2.39c-1.8-1.74-2.42-4.37-2.54-6.86a22.9,22.9,0,0,1,13.33-21.49Z"/><path class="cls-10" d="M251.88,188.12c7.64.14,11.25,6.42,9.24,11.61-.9,2.34-1.94,7.64-1.36,9.24a2.08,2.08,0,0,1-.8,2.39c-1.28-.87-3.74-1.51-3.74.75a4.77,4.77,0,0,0,2.59,4.08c4.13,1.63-10.76,10.19-12.78,9.49a13.19,13.19,0,0,1-5.15-3.71c-5-5.44-9.41-18.88.49-25.61C246.52,192.18,251.88,188.12,251.88,188.12Z"/><path class="cls-18" d="M201.7,251.43c-6.16,9-3.76,8.33-2.54,10l13.71,7a7.9,7.9,0,0,0,8.93-2.26L232,254l2.46,30.9L228.28,313s9.89-3,13.17-3.78c22.2-5.29,36.43,10.82,47.08,3.78-15.12-23-15-48.38-17.32-63.17,8.82-2.1,22-2.74,27.41-7.3,2.64-2.26,10-22.61,10.94-39.39.17-3.13-6.95-2.39-11,.68-.13.1-2.37,15-10.66,22.27-4.58,4-.92,4.89-18,3.67-3.2-.23-6.77,2.57-9.25,1.69-2.14-.76-4,.92-5.69,1.11-4.71.53-10.58.09-9.76-5.19.07-.45-2.08.73-3.36.77-7.13.19-14.6,1.61-17,5.86-.64,1.13-4.37,14.73-10.72,19.32C209.55,256.61,201.7,251.43,201.7,251.43Z"/><path class="cls-19" d="M261.56,431.06l-.73,5.66,5.21.62v-1.68s4.07,1.76,5.92,1.68,10,0,10,0,1.34-3.95-3.2-5.13a39.93,39.93,0,0,1-7.41-2.78l-9.5.54Z"/><path class="cls-19" d="M233.69,431.06l-.72,5.66,5.21.62v-1.68s4.06,1.76,5.92,1.68,10,0,10,0,1.34-3.95-3.2-5.13a40.21,40.21,0,0,1-7.42-2.78L234,430Z"/><rect class="cls-2" x="441.03" y="119.42" width="117.8" height="108.38" rx="18.89"/><path class="cls-19" d="M385.2,429.61s-2.64,4-6.36,4.81-7.37,2.22-7.39,4.56,10.73,3.74,15,1.38c6.34-3.53,7-2.46,7.69-4.23s-.85-6.47-.8-7S385.2,429.61,385.2,429.61Z"/><path class="cls-17" d="M385.61,427.65a17.44,17.44,0,0,0-.41,2c.07,0,8.37,1,8.12-.51-.21-1.25-.5-2.6-.5-2.6Z"/><path class="cls-19" d="M413.11,429.34s-1.88,3.79-5.11,5.08c-3.45,1.38-6.21,3-6.15,5.25s8.43,4.59,14.52.21c3.84-2.76,5.06-2.78,5.68-4.52s-1.07-6.27-1.05-6.82S413.11,429.34,413.11,429.34Z"/><path class="cls-17" d="M413,427.38a18.73,18.73,0,0,0,.09,2c.08,0,8.09.7,7.89-.8a12.35,12.35,0,0,0-.78-2.64Z"/><path class="cls-5" d="M383.63,311.67s-7.45,32.85-9.15,42.86c-1.45,8.52-2.6,17.38-1.91,23.53.86,7.61,11.64,47.06,11.19,49.29s11.27.36,11.27.36-8.19-44-6.56-52.19c1.22-6.07,11.84-46.36,13.47-44.3s3.64,38,4.85,44,4.91,53.14,4.91,53.14,8.27,1.22,10.48-.65c0,0,1-40.28.24-51.47-.29-4.26,5-51.14-1.79-70C417.05,296.26,383.63,311.67,383.63,311.67Z"/><path class="cls-20" d="M351.21,281.81c5.31-.75,22,6.65,23.53,6.09,1-.38,3.49-8.36,5.24-14.4,1-3.57,1.82-6.47,1.93-6.71h0a34.94,34.94,0,0,0,.06,6.48c0,.23.13.34.16.58a1.81,1.81,0,0,0,0,.23c.41,1.21.59,2.56.95,3.94a20.8,20.8,0,0,1,.58,7.77h0v.07a1.21,1.21,0,0,1,0,.19v.08c.15,5.18-.21,10.75-.35,13.72-.24,4.6,1.27,6.67,1.32,6.73h0l1.6-.23,1.15-.16h0L389,306l6.06-.85,2.19-.31.52-.07,3.84-.54,10.82-1.52,1.18-.17.49-.07,4.08-.58,1.85-.25h0s1.57-11.11,1.69-17.11c.11-5.52,3.06-16.72,3.54-18.51,0,0,0,0,0,0a.43.43,0,0,1,0,0l0-.08a.06.06,0,0,1,0,0h0v0s8.83,9.28,10.55,13.32c.52,1.23,2.12,4.57,4.15,8.64a24.63,24.63,0,0,0,2.26-5v-.18c-.13-4-4.32-20.23-7.63-30.84-2.57-5.16-4.79-9.34-5.5-9.85a78.65,78.65,0,0,0-9.57-4.28l-.38-.16L418.1,237l-.52-.2-.28-.11-.23-.09h0a30.92,30.92,0,0,0-3.79-1.29H413l-.5,0c-2.44.15-9.74.83-12.09,1.05l-.73.07h0l-2.81,1.28h0l-.15.07c-1,.46-2.2,1.09-3.44,1.77-2.44,1.33-5.14,2.9-7.38,4s-5.19,2.5-5.45,2.7l-11.11,32-19.27-3.52Z"/><path class="cls-5" d="M384.68,306.57s-.82,1-1.05,5.1c0,0,33.47-3.9,37-5.44,0,0,.14-4.55-.61-4.62S384.68,306.57,384.68,306.57Z"/><path class="cls-3" d="M413.22,234.19c-.11,5.26-10.28,8.13-10.28,8.13s-4.25-5.33-3.23-5.84c.4-.2.56-1,.61-1.89a19.69,19.69,0,0,0-.06-2.39c0-.37-.06-.61-.06-.61s1.45-1.53,3.3-3.36c3.23-3.19,7.67-7.28,7.68-5.65a1.31,1.31,0,0,1,0,.31C410.36,226.55,413.22,234.19,413.22,234.19Z"/><path class="cls-21" d="M409.3,226.5h0s-.45.67-1.19,1.6c-1.56,2-4.49,5.19-7.79,6.49a19.69,19.69,0,0,0-.06-2.39,4.29,4.29,0,0,1-1-.12,30.08,30.08,0,0,1,2.21-3.23l2-.62Z"/><path class="cls-3" d="M411.25,222.65c-.88,1.91-1.71,3.3-1.95,3.85h0a6.47,6.47,0,0,1-1.19,1.6c-1.67,1.81-4.79,4.19-7.85,4.1a4.29,4.29,0,0,1-1-.12,4.78,4.78,0,0,1-3.5-2.42c-6.35-12.42-1.75-22.57-1.75-22.57s17.35-4.91,20.06.31C416,211.06,413.32,218.15,411.25,222.65Z"/><path class="cls-10" d="M394,207.09s-1.61-.09-2-3.15.4-3.85.4-3.85,7.16-3,9.73-3.39,8.9-.77,10.38.93c0,0,3.61-.84,4.59,5.14,1.55,9.49-5.31,18.7-5.31,18.7s.06-6.2-1.31-7-2.54,1.13-2.54,1.13l-2.8.5s4.25-9.17-.85-9.51S396.91,207.62,394,207.09Z"/><path class="cls-22" d="M408,213.11c.27-2.73,5.21-3.77,4.88-.91s-2.77,5.61-3.89,5.51S407.8,215.19,408,213.11Z"/><path class="cls-9" d="M442.27,282.75v-.18c-.1-4-2.06-20-5.37-30.58-1.6-5.15-2-8.75-2.6-9.19-1.07-.77-10.66-3.61-14.73-5.2l-.38-.16L418.1,237l-.52-.2-.28-.11-.23-.09,0,0a66.72,66.72,0,0,0-4.49,5.73c-4.2,6-9.67,15.65-8.83,24.58.27,2.87.6,7,1.16,11.6,0,.39.1.79.15,1.19.13,1.07.28,2.15.44,3.25.1.66.2,1.33.31,2,1.11,6.93,4.59,11.65,7.69,17.29l.08.15,0,.08c.07.12.14.24.2.36l.32.6.18.34c.59,1.14,1.17,2.3,1.73,3.47.37.75.72,1.51,1.07,2.26l.11.24,1.3,3,.85,2c.2.47.4.94.6,1.39l.49,1.15.87,2,.3.71c1.07,2.67,1.83,4.72,2.19,5.69l.22.59,10.7-5.91c2-1,1-6.5.21-8.63a49.36,49.36,0,0,0-2.54-5.66c-.41-.81-.84-1.63-1.28-2.45,3.35-5.85,6.74-11.89,8.89-16A24.63,24.63,0,0,0,442.27,282.75Zm-17-16.76s0,0,0,0a.43.43,0,0,1,0,0l0-.08a.06.06,0,0,1,0,0h0s5.21,8.14,4.82,15.21c-.06,1.1-1.16,3.88-2.75,7.45h0c-.58,1.3-1.23,2.71-1.92,4.17l-.07-.18a18.45,18.45,0,0,1-1.65-6.71S424.18,270.2,425.25,266Z"/><path class="cls-9" d="M344.1,271l24.24,5.28L379.9,246c.25-.2,3.56-2,5.76-3s5.17-2.43,7.74-3.61c1.22-.57,2.37-1.1,3.35-1.54l.08.06s-1.43,4.76-3.28,16.66h0l-.18,1.22,0,.15-.12.83s0,.07,0,.1c0,.19-.05.38-.08.58-.07.47-.14.94-.21,1.43-.83,5.79-2,15.64-3.1,25.59h0c-.88,7.84-2.88,15.89-3.52,21.89h0a43.84,43.84,0,0,1-.83,4.52l-.15.6c-1.79,7.58-5.27,18.31-5.27,18.31l-1-.94-3-2.77a2.45,2.45,0,0,1-.67-2.52c1.66-5.37,7.32-24.39,8.36-37.76h0c.33-4.2-.9-8.16-1.61-11.91a.3.3,0,0,0,0,.1c-.6,1.66-1.26,3.46-1.92,5.21h0c-1.79,4.72-3.62,9.08-4.38,9.36-1.69.62-33.61-8.1-33.83-9.36Z"/><path class="cls-5" d="M414.25,249.66l-4.95,2.79,2.12,2.16L405.79,285c-1.15-7.12-1.67-13.88-2.06-18-1.3-13.81,12.49-29.38,13.34-30.34l2.12.82Z"/><path class="cls-5" d="M396.9,237.76s-1.84,6-4,21.1c-.83,5.79-2,15.64-3.1,25.59L388.65,256l2.36-2.55-2.1-2.62,4.49-11.45c1.22-.57,2.37-1.1,3.35-1.54Z"/><path class="cls-23" d="M417.32,236.72l-4.1-2.53s-.12,2.25-10.28,8.13l2.89,8.13Z"/><path class="cls-23" d="M400.24,235.33s.16,2.43,2.7,7l-5.63,7.34-.41-11.9Z"/><path class="cls-11" d="M403,242.32s1.09,4.36.7,5.59c0,0-2.4.87-4.13-.22A19.3,19.3,0,0,1,403,242.32Z"/><path class="cls-9" d="M401.59,303.85s-4.92.59-6.55,1l.21,5.52,6.45-.68Z"/><g class="cls-14"><path class="cls-7" d="M400.51,247.3s-5.49,13.87-4.59,29.39c.93,16.1,2.45,21.93,2.45,21.93l3.39,4.25,1.49-5.22s-4.54-20.52-1.61-40.49c.53-3.62,1.32-10.48,1.32-10.48Z"/></g><path class="cls-3" d="M417,312.8s-1.18,2.36-2.36,2.75a10.15,10.15,0,0,0-2.9,2.31l8.3,4.37s2.21-4.32,2.31-7.07S417,312.8,417,312.8Z"/><path class="cls-24" d="M416.23,313l-.55,1.1s5.27,3.86,6.69,4.1l.49-1.47Z"/><path class="cls-9" d="M415.68,313.07a40.7,40.7,0,0,0,7.28,4.77l11.19-20.14-5.8-11.21S415.94,311.1,415.68,313.07Z"/><path class="cls-5" d="M382.05,274c-.6,1.66-1.26,3.46-1.92,5.21a53.1,53.1,0,0,1-.15-5.68c.27-10.44,3.55-15.92,3.55-15.92-.75,1.82-1.11,5.72-1.29,9.25-.18,3.73-.15,7-.15,7h0Z"/><path class="cls-5" d="M432.4,306.15l-9,10.82,7.68-13.27C431.56,304.52,432,305.34,432.4,306.15Z"/><path class="cls-18" d="M367.32,292.58H346.63a3.06,3.06,0,0,1-3-2.35l-9-37.11a3.07,3.07,0,0,1,3-3.79h20.69a3.07,3.07,0,0,1,3,2.35l9,37.1A3.07,3.07,0,0,1,367.32,292.58Z"/><path class="cls-3" d="M342,282.26c1-.94,3-1.48,4.63-2.6a1.31,1.31,0,0,0,.28-2.27c1.72-.59,1.53-1.37,1.31-1.91-.3-.72-2.17-.51-2.17-.51a17.87,17.87,0,0,0,2.37-.68c.69-.31.46-1.51-.6-1.9s-5.41.69-5.41.69.71-.34,2.85-1.42,2.61-2.05,1.35-2.52c-.88-.32-2.6.36-5.91,2.58-2.49,1.68-2.29,1.89-2.29,1.89S340.81,283.38,342,282.26Z"/><polygon class="cls-25" points="507.72 139.15 507.72 126.37 493.67 126.37 493.67 139.15 483.94 139.15 500.66 165.9 517.38 139.15 507.72 139.15"/><path class="cls-16" d="M539.7,146.13h-24l-15,24.12-15.8-24.12H462.17a9,9,0,0,0-9,9.05v46.18a9,9,0,0,0,9,9H539.7a9,9,0,0,0,9-9V155.18A9,9,0,0,0,539.7,146.13Z"/><path class="cls-22" d="M515.93,212.1s-2.55-4.46,1.49-16.41a12,12,0,0,1,21.74-3.1c4.3,7.4,2.85,12-3.48,20.36S518.55,215.93,515.93,212.1Z"/><path class="cls-22" d="M547.35,417.74s.68,4.92.76,5.65,7.45-.44,7.45-.44l.59-5.84S548.28,417.05,547.35,417.74Z"/><path class="cls-19" d="M548,422.77a20.05,20.05,0,0,1-4.59,4.24c-2.26,1.29-5.81,1.8-7.14,3.14-1,1-3.51,5.11,5.87,5s13.89.59,14.89-1-1.45-11.74-1.45-11.74S553.32,423.08,548,422.77Z"/><path class="cls-22" d="M496.36,417.74s.67,4.92.76,5.65,7.44-.44,7.44-.44l.6-5.84S497.28,417.05,496.36,417.74Z"/><path class="cls-19" d="M497,422.77a20.29,20.29,0,0,1-4.59,4.24c-2.26,1.29-10.57,2.35-11.9,3.69-1,1-2.56,4.83,10.62,4.47,9.37-.26,13.9.59,14.9-1s-1.45-11.74-1.45-11.74A39,39,0,0,1,497,422.77Z"/><path class="cls-5" d="M544.88,295.52s3.77,11.73,3.27,21.84,2,21.18,3,31.75c1.11,11.77,5.68,39.65,5.85,45.95s-.71,26.42-.71,26.42l-9.15.22S539.42,373,537.43,368s-11.85-40.42-12.18-44.4S544.88,295.52,544.88,295.52Z"/><path class="cls-5" d="M507,294.3s-5.56,31-6.22,37.21-1.1,30-1.44,33.82-2.21,50.62-4,56.37h10.19s10.47-34,10.47-50.07,6.94-35,11.41-45.56,14.72-10.86,17.48-30.55C544.88,295.52,510.68,288.05,507,294.3Z"/><path class="cls-22" d="M519.63,215.26s1.15,3.35,0,5.74,14.69.95,14.69.95a17.1,17.1,0,0,1,1.36-9C537.75,208.89,519.63,215.26,519.63,215.26Z"/><path class="cls-9" d="M545.61,298.07s-5.7,5.86-39.16-.9l.51-2.87,38,1.43Z"/><path class="cls-3" d="M517.23,221.77s-5.86.6-7.53.92-12.93-2-15.24-2.25-12.15-7-12.47-7.79-6-15.15-6.31-18.26-5.53-1.5-5.08.64c.84,4,1.91,13.72,2.49,16.54.64,3,2.34,9.92,3.3,10.77s9.82,7.6,18.5,10.46a73.84,73.84,0,0,1,15.21,7.09h42.78s16.64-23.79,17-27.37-11.62-27.4-14-30.39-5.84,1-5.84,1,7.15,21,8.11,24-8.33,16.11-10.88,16.15-9.09-.8-12-.92a20.48,20.48,0,0,1-6-1.39Z"/><path class="cls-26" d="M498.79,237.66s5.24,3.48,5.72,9.45a123.68,123.68,0,0,0,3.34,18.64c1,3.23-.84,26.64-1.07,28.31s33.1,5.64,38.22,1.67c0,0,1.43-21.86,2-28.07s3.46-21.26,4.42-23.29,12.54-18.29,13-20.43c0,0-6-9.56-10.29-9.67,0,0-6.83,8-9.06,8.36s-15.88-2.15-15.88-2.17-1.49,2-9.41-.36c0,0-9.43,1.07-11,1.26-1.86.24-14.78-1.62-14.78-1.62s-5.18,8.75-4.27,13.17Z"/><path class="cls-3" d="M476,196.26s-1.17-5.54.24-7.13c.8-.9,2.73-3.3,2.9-3.65s2.24-1.54,2.24-2.11-2-1.28-3.78.35-2.86,2-3.56,1.8-1.72-6-1.81-7.48-.65-5.28-1.55-5-.87,1.93-.87,1.93-1.05-2.9-1.76-2.33-.61,2-.61,2-1.32-1.63-1.68-.44a4.11,4.11,0,0,0,0,2.24s-1.36-.74-1.45,1.1.4,7.27,1.37,9.2,4.59,7,5,9S476,196.26,476,196.26Z"/><path class="cls-3" d="M551.19,186.53s-4-6.69-5.33-7.29-3.27-.93-4.94-2.13-3.88-2.18-3.76-2.58,2.09-.24,4.2.67,3,.48,3.23,0-1.12-3.85-1.76-4.65-5.17-5.36-4.42-6,3.7,1.82,4.18,2.34c0,0-2.35-4.94-1.43-5.17s2.63,1.51,2.63,1.51-.2-4.22,4.34,2.63c0,0-1-2.27.43-1.51s2.75,5,3.19,7.16,2.43,9,4.12,10.65S551.19,186.53,551.19,186.53Z"/><path class="cls-10" d="M535.68,213s-2.1.19-6.56-1.35-4.79-9.34-5.76-8.42a2.82,2.82,0,0,1-4.57-.52s2.18-2.87,1.17-4.25a10.76,10.76,0,0,0-2.65-2.39s3.14-15.12,17.41-8.23C551.44,195.86,535.68,213,535.68,213Z"/><path class="cls-4" d="M519.63,221l.5-2.19a116.38,116.38,0,0,1,14.08.54l.52,2.61S528.37,224.84,519.63,221Z"/><path class="cls-22" d="M521.87,201.27c.83-1.37,3.89-2.3,4.25,1.6.28,3-5.47,6.31-5.52,3.5A8.57,8.57,0,0,1,521.87,201.27Z"/></g></svg>